<?xml version="1.0" encoding="UTF-8"?>
<svg width="48px" height="56px" viewBox="0 0 48 56" version="1.1" xmlns="http://www.w3.org/2000/svg" xmlns:xlink="http://www.w3.org/1999/xlink">
    <!-- Generator: Sketch 44.1 (41455) - http://www.bohemiancoding.com/sketch -->
    <title>Untitled 4</title>
    <desc>Created with Sketch.</desc>
    <defs></defs>
    <g id="Page-1" stroke="none" stroke-width="1" fill="none" fill-rule="evenodd">
        <g id="Bell" fill="#413F3C">
            <path d="M27.832,49.678 C19.347,51.979 11.808,51.408 10.993,48.403 C10.233,45.601 15.591,41.673 23.198,39.29 L23.691,41.154 C22.134,42.234 21.322,44.103 21.801,45.916 C22.425,48.282 25.006,49.652 27.566,48.976 C30.125,48.301 31.693,45.835 31.069,43.469 C30.59,41.656 28.961,40.432 27.074,40.261 L26.576,38.374 C34.349,36.586 40.961,37.27 41.72,40.072 C42.535,43.077 36.317,47.378 27.832,49.678 Z M47.531,38.154 C47.084,36.504 45.768,35.192 43.826,34.253 C43.149,33.624 40.936,29.662 37.95,29.805 C37.95,29.805 36.003,30.104 33.969,25.634 C30.933,18.963 28.242,12.681 20.4,13.187 L20.206,12.476 C20.817,11.552 21.068,10.391 20.806,9.225 C20.294,6.952 18.037,5.523 15.764,6.034 C13.49,6.546 12.062,8.803 12.573,11.076 C12.863,12.365 13.715,13.382 14.813,13.928 L14.948,14.423 C12.041,15.755 7.98,19.15 9.04,27.624 C9.04,27.624 10.177,36.629 9.04,37.293 C9.04,37.293 6.291,38.81 5.817,43.17 C5.817,43.17 5.723,44.023 5.622,44.93 C4.606,46.592 4.232,48.249 4.647,49.781 C6.116,55.201 16.908,56.993 28.75,53.783 C40.592,50.572 49.001,43.575 47.531,38.154 L47.531,38.154 Z" id="Fill-37"></path>
            <path d="M12.937,14.756 C11.938,13.944 11.193,12.805 10.889,11.455 C10.535,9.881 10.845,8.31 11.632,7.034 C7.223,6.018 -0.292,4.826 0.101,8.639 L1.731,17.053 C1.731,17.053 1.837,20.436 6.477,18.344 C6.477,18.344 10.019,16.628 12.937,14.756" id="Fill-38"></path>
            <path d="M22.49,8.846 C22.793,10.197 22.608,11.545 22.053,12.706 C25.49,13.149 29.427,13.183 29.427,13.183 C34.516,13.087 33.163,9.984 33.163,9.984 L31.034,1.683 C29.756,-1.931 23.475,2.363 19.926,5.169 C21.183,5.985 22.136,7.272 22.49,8.846" id="Fill-39"></path>
        </g>
    </g>
</svg>